<svg width="100%" height="100%" viewBox="0 0 115 130" fill="none" xmlns="http://www.w3.org/2000/svg">
<path d="M71.5 68H60.5C54.8 68 56.4 64.8 58.9 57.8C63.4 46.7 63.3 45.3 68.8 45.3C68.6 44.2 68.3 43.1 68 42C66.5 36.6 61.7 32.6 58 33C55 33.3 51.8 34.5 48.3 37.3C45.1 39.8 39.1 45.5999 28.8 58.5999C16.3 74.2999 12.7 84.0999 21.9 85.5999L26.1 85C25.2 90.7 25.5 94.3999 26.4 96.0999C26.8 96.7999 27 96.7 27.8 96.8L40.5 97C41 97 41.9 97 41.9 97L51.1 96.8L70.9 97C71.5 97 72.1 96.5 72.1 95.8C72.2 93.7 72.5 88.8 72.3 82.4C72.2 77.6 71.9 72.7 71.5 68Z" fill="#FFC4CD"/>
<path d="M89.6 114.3C90.4 116.1 91.3 117.8 92.3 119.5C93.8 122 95.5 124.8 98.1 126.4V125.5C97.9 125.5 97.7 125.5 97.5 125.5C96.8 125.5 96 125.5 95.3 125.3C92.8 124.8 90.5 123.5 88.6 121.8C86.9 120.3 85.5 118.5 84.3 116.5C84 116 83.1 116.5 83.4 117C86.4 121.9 91.2 126.3 97.2 126.5C97.6 126.5 98 126.5 98.4 126.5C98.9 126.5 98.8 125.8 98.5 125.6C96 124 94.4 121.2 92.9 118.7C92 117.1 91.1 115.5 90.3 113.8C90 113.2 89.2 113.8 89.4 114.3H89.6Z" fill="#17171E"/>
<path d="M80.3 114C81.2 116.8 82 119.5 82.8 122.3C82.9 122.7 83 123.1 83.2 123.5C83.4 124.1 84.3 123.8 84.2 123.2C83.3 120.4 82.5 117.7 81.7 114.9C81.6 114.5 81.5 114.1 81.3 113.7C81.1 113.1 80.2 113.4 80.3 114Z" fill="#17171E"/>
<path d="M105 112.7C105.8 114.5 106.7 116.2 107.7 117.9C109.2 120.4 110.9 123.2 113.5 124.8V123.9C113.3 123.9 113.1 123.9 112.9 123.9C112.2 123.9 111.4 123.9 110.7 123.7C108.2 123.2 105.9 121.9 104 120.2C102.3 118.7 100.9 116.9 99.7 114.9C99.4 114.4 98.5 114.9 98.8 115.4C101.8 120.3 106.6 124.7 112.6 124.9C113 124.9 113.4 124.9 113.8 124.9C114.3 124.9 114.2 124.2 113.9 124C111.4 122.4 109.8 119.6 108.3 117.1C107.4 115.5 106.5 113.9 105.7 112.2C105.4 111.6 104.6 112.2 104.8 112.7H105Z" fill="#17171E"/>
<path d="M95.7 112.4C96.5 115.2 97.4 117.9 98.2 120.7C98.3 121.1 98.4 121.5 98.6 121.9C98.8 122.5 99.8 122.2 99.6 121.6C98.8 118.8 97.9 116.1 97.1 113.3C97 112.9 96.9 112.5 96.7 112.1C96.5 111.5 95.5 111.8 95.7 112.4Z" fill="#17171E"/>
<path d="M78.7 29C76.9 33.5 72.3 36 67.5 35.8C62.7 35.6 58.1 32.3 56.5 27.6C54.9 22.9 56.5 18 60.5 15.3C64.5 12.6 69.8 12.7 73.8 15.3C78.4 18.2 80.6 23.8 78.6 29C78.4 29.6 79.3 29.9 79.6 29.3C81.5 24.4 79.7 18.8 75.7 15.5C71.7 12.2 65.8 11.4 61.1 13.8C56.4 16.2 54 21.4 55.1 26.4C56.2 31.4 60.6 35.6 65.8 36.5C71.6 37.5 77.4 34.7 79.7 29.2C79.9 28.6 79 28.4 78.7 28.9V29Z" fill="#17171E"/>
<path d="M71.9 13.8C70.9 13.4 69.8 13.1 68.8 13C70.6 8.30002 68.4 3.1 63.8 1.3C59.2 -0.499996 54 1.80002 52.2 6.50002C50.4 11.2 52.6 16.4 57.2 18.2C56.8 18.8 56.4 19.5 56.2 20.2C55.4 22.3 55.2 24.5 55.7 26.6C55.7 26.6 58.2 28.1 66.7 27C75.2 25.9 79.5 21.9 79.5 21.9C78.4 18.5 75.8 15.4 72 14L71.9 13.8Z" fill="#17171E"/>
<path d="M104.4 110.2C104.4 110.2 89.1 63.3 85.6 61C82.1 58.8 79.2 59.8 76.9 61.3C76.7 61.5 76.4 61.6 75.6 62.4C74.1 61.5 72.1 60.5 71.4 60.3C67.4 59.2 64.9 59.6 62.6 61.1C60.4 62.6 40.6 80.3 40.6 80.3C40.6 80.3 25.8 94.6 26.2 96.2C29.3 109.5 65.5 107.7 71.3 97.4C73.1 94.1 73.6 92.2 74.5 88.7C76.6 99.9 79.9 112.9 79.9 112.9L88.9 111.8L86.5 92.6L95.2 110.9L104.3 110.4L104.4 110.2Z" fill="#17171E"/>
<path d="M75.6 46C77.9 46 80.1 46 82.4 45.9C84.3 45.9 86.2 45.8 88.1 45.7C89.1 45.7 90.1 45.7 91 45.8C92.9 46.3 93 48 92.7 49.6C92.2 52.1 91.1 54.5 90.1 56.9C89.3 58.8 88.6 60.7 87.8 62.6C87.6 63.2 88.5 63.4 88.8 62.9C89.5 61.1 90.3 59.3 91 57.6C92 55.1 93.3 52.6 93.8 49.9C94.1 48.2 94.1 46.1 92.3 45.2C91.5 44.8 90.5 44.7 89.6 44.7C88 44.7 86.4 44.8 84.8 44.9C81.8 45 78.7 45.1 75.6 45.1C75 45.1 75 46.1 75.6 46.1V46Z" fill="#17171E"/>
<path d="M54.5 62C55.2 60.7 56.2 59.6 57.4 58.8C57.6 58.6 57.9 58.5 58.2 58.3C58.5 58.1 58.7 58 58.7 58.4C58.6 58.9 58.3 59.4 58 59.8C57.7 60.2 58.2 60.6 58.5 60.3C60 58.9 62.1 58.1 64.1 58C65.9 58 68.3 58.6 68.5 60.7C68.6 62.2 67.8 63.8 67.1 65.1C66.4 66.3 65.7 67.5 64.6 68.4C64.2 68.7 64.7 69.5 65.2 69.2C66.2 68.4 66.9 67.3 67.5 66.3C68.3 65 69 63.6 69.2 62.1C69.4 60.6 69.2 59.3 68.1 58.3C66.8 57.2 64.9 57 63.3 57.2C61.3 57.4 59.4 58.4 57.9 59.8L58.4 60.3C58.8 59.7 59.2 59 59.3 58.3C59.3 57.7 59.1 57.2 58.5 57.3C57.6 57.5 56.6 58.3 55.9 59C55.1 59.7 54.5 60.6 54.1 61.7C54.1 61.9 54.4 62.1 54.5 61.9V62Z" fill="#17171E"/>
<path d="M35.9 36.8C32.3 36.1 28.5 36.8 25 38.1C20.6 39.6 16.4 42.1 12.9 45.2C9.09999 48.5 6.09999 52.7 4.29999 57.4C1.69999 64.2 1.59999 71.6 1.29999 78.8C0.999986 86.4 0.599986 94.2 1.29999 101.8C1.79999 108 3.4 114.2 7.6 119C11.6 123.5 17.2 126.2 23 127.4C26.5 128.2 30.1 128.7 33.7 129.2C37.5 129.7 41.3 130 45.2 129.7C51.2 129.2 57.3 128 62.9 125.6C68.1 123.4 72.7 119.8 74.8 114.4C75.1 113.7 74 113.4 73.7 114.1C69.8 124 57.9 126.9 48.5 128.2C41.5 129.2 34.6 128.4 27.7 127.2C21.7 126.2 16 124.7 11.2 120.9C6.10001 116.9 3.70001 111 2.70001 104.7C1.70001 97.8 1.9 90.7 2.1 83.8C2.3 76.9 2.19999 69.5 3.79999 62.6C4.99999 57.3 7.4 52.4 11.1 48.4C14.8 44.4 19.1 41.5 24 39.5C27.7 38 31.9 36.9 35.9 37.4C36.2 37.4 36.3 36.9 35.9 36.9V36.8Z" fill="#17171E"/>
</svg>
