<svg width="100%" height="100%" viewBox="0 0 103 140" fill="none" xmlns="http://www.w3.org/2000/svg">
<path d="M21 77C21 77 20.4 94.8 37.2 93.8C54 92.8 62.9 94.1 62.9 94.1C62.9 94.1 74 122 74.6 123.3C75.2 124.6 84.8 123.3 84.8 123.3L82.9 112.5L91.5 112.8C91.5 112.8 81.6 77 76.9 76.3C67.7 75 21.1 76.9 21.1 76.9L21 77Z" fill="#17171E"/>
<path d="M80.8 74.3C81.8 71.7 82.5 69 83.3 66.4C84.3 63.2 85.2 59.9 86.1 56.7C86.4 55.8 86.8 54.8 86.9 53.8C87.1 51.8 85.3 51.8 83.8 51.8C79.6 51.6 75.4 51.4 71.2 51.2C68.4 51.1 65.5 50.9 62.7 50.8C62.1 50.8 62.1 51.8 62.7 51.8C68.8 52.1 74.9 52.5 81 52.7C81.8 52.7 82.7 52.7 83.5 52.8C84.3 52.9 85.9 52.6 85.9 53.8C85.9 54.7 85.4 55.6 85.2 56.5C84.3 59.6 83.4 62.6 82.5 65.7C81.7 68.5 80.9 71.4 79.9 74.1C79.7 74.7 80.6 75 80.9 74.4L80.8 74.3Z" fill="#17171E"/>
<path d="M84 115C85.3 118.1 86.7 121.2 88.1 124.2C88.3 124.6 88.5 125.1 88.7 125.5C89 126.1 89.8 125.5 89.6 125C88.3 121.9 86.9 118.8 85.5 115.8C85.3 115.4 85.1 114.9 84.9 114.5C84.6 113.9 83.8 114.5 84 115Z" fill="#17171E"/>
<path d="M83.9001 125.1C83.9001 126.1 84.2 127 84.5 127.9C85.3 130.4 86.5 132.7 88 134.8C88.5 135.5 89 136.1 89.5 136.7C90.1 137.5 90.8 138.3 91.6 139C91.6 138.9 91.6 138.8 91.6 138.7H91.7C91.7 138.7 91.4 138.7 91.3 138.7C89.5 138.4 87.7 137.5 86.2 136.5C83.4 134.8 80.8 132.5 79 129.8C78.6 129.3 77.8 129.8 78.1 130.3C79.9 132.9 82.2001 135.1 84.9001 136.9C86.7001 138.1 88.7 139.1 90.8 139.6C91.2 139.6 91.9 139.9 92.3 139.6C93 139 92 138.3 91.7 137.9C89.3 135.4 87.2001 132.5 85.9001 129.3C85.4001 128 84.9001 126.5 84.9001 125.3C84.9001 124.7 83.9001 124.7 83.9001 125.3V125.1Z" fill="#17171E"/>
<path d="M91.7 114.7C92.2 115.6 92.8 116.4 93.4 117.1C95.1 119.2 97.1 121.1 99.1 122.8C99.7 123.3 100.3 123.8 101 124.3C101.2 124.5 101.7 124.9 101.8 124.9V124.7L101.9 124.5H101.7C101.5 124.5 101.2 124.5 101 124.5C99.2 124.5 97.3 124.1 95.6 123.5C93 122.7 90.6 121.3 88.8 119.2C88.4 118.7 87.7 119.4 88.1 119.9C89.8 121.9 92.1 123.3 94.6 124.2C96.5 124.9 98.6 125.4 100.7 125.5C101.2 125.5 101.9 125.5 102.4 125.3C102.9 125.1 102.9 124.5 102.6 124.1C102.1 123.6 101.4 123.3 100.9 122.9C100.1 122.2 99.2 121.6 98.4 120.9C97.3 119.9 96.2 118.9 95.3 117.8C94.4 116.7 93.3 115.5 92.5 114.2C92.2 113.6 91.3 114.2 91.6 114.7H91.7Z" fill="#17171E"/>
<path d="M35 23.8C35 28.3 38.1 32.1 42.3 33.6C46.5 35.1 51.8 33.8 54.8 30.3C57.6 26.9 58 22.1 55.5 18.4C53 14.7 48.3 12.9 43.8 13.7C38.9 14.6 35 18.8 34.9 23.9C34.9 24.5 35.9 24.5 35.9 23.9C35.9 19.8 38.7 16.3 42.6 15C46.5 13.7 51 14.8 53.8 17.9C56.6 21 56.8 25.2 54.7 28.6C52.5 32.1 48.1 33.8 44 33.1C39.5 32.3 35.9 28.5 35.9 23.9C35.9 23.3 34.9 23.3 34.9 23.9L35 23.8Z" fill="#17171E"/>
<path d="M39 16.6C36.8 15.2 35.3 12.8 35.3 10.1C35.3 5.79998 39 2.29999 43.5 2.29999C48 2.29999 51.7 5.79998 51.7 10.1C51.7 14.4 51.1 13.4 50.1 14.7C53.9 16.2 56.7 19.7 56.7 23.9C56.7 23.9 54.9 24.1 51.9 21.6C51.9 21.6 48.2 26.4 40.4 26.5C35.7 26.5 35.9 26 35.9 26C35 22.2 36.5 18.9 39.1 16.7L39 16.6Z" fill="#17171E"/>
<path d="M76.5 125.1C76.7 128.5 76.8 131.9 77 135.3C77 135.8 77 136.3 77 136.8C77 137.4 78 137.4 78 136.8C77.8 133.4 77.7 130 77.5 126.6C77.5 126.1 77.5 125.6 77.5 125.1C77.5 124.5 76.5 124.5 76.5 125.1Z" fill="#17171E"/>
<path d="M54 62.8C54.8 63.2 55.6 63.4 56.4 63.6C57.3 63.8 58.2 64 59.1 64.3C60.9 64.7 62.7 65.1 64.4 65.6V64.7C63 65.6 61.7 66.5 60.5 67.4C59.8 67.9 59.2 68.3 58.5 68.8L57.7 69.4C57.5 69.5 57.3 69.6 57.2 69.8C57 69.8 57 69.8 57.1 70C56.4 68.9 55.8 67.9 55.4 66.6C55 65.3 55 64 55.2 62.7C55.2 62 54.2 62 54.1 62.7C53.9 64.2 54.1 65.6 54.5 67C54.7 67.7 55 68.4 55.3 69C55.6 69.6 56 70.3 56.5 70.8C57.1 71.4 57.8 70.8 58.3 70.4C59 69.9 59.8 69.4 60.5 68.8C62 67.8 63.4 66.7 64.9 65.6C65.2 65.4 65.2 64.8 64.8 64.7C63 64.3 61.2 63.9 59.5 63.5C58.6 63.3 57.7 63.1 56.9 62.9C56.1 62.7 55.2 62.5 54.3 62.5C54.1 62.5 54 62.8 54.3 62.9L54 62.8Z" fill="#17171E"/>
<path d="M57.8 60.7C61.3 56.2 68.8 56.3 72.5 60.5C74.3 62.6 75.2 65.5 74.4 68.2C73.7 70.7 71.7 72.8 69.3 73.7C66.3 74.7 63 74 60.7 71.9C60.2 71.4 59.5 72.2 60 72.6C62.3 74.6 65.5 75.6 68.5 75C71.5 74.4 73.8999 72.3 75.0999 69.6C76.2999 66.9 75.9 63.6 74.3 61.1C72.5 58.4 69.6 56.8 66.4 56.4C63.2 56 58.8 57.1 57.2 60.2C57 60.6 57.5 61 57.8 60.7Z" fill="#17171E"/>
<path d="M21 77L26.9 77.5V75L43.4 74.3C43.4 74.3 47.6 55.8 48.5 53.5C49.4 51.2 51.1 51.2 52.9 51.2C54.7 51.2 60.5 51.3 60.5 51.3C60.5 51.3 58.1 33.5 53.9 31.1C53.9 31.1 49.9 34.3 44.6 33.6C37.7 32.8 36.4 28 36.4 28C35.7 28 30.9 31.4 27.2 38C20.7 49.7 21 77.1 21 77.1V77ZM34 64.6C36.5 65.4 39.3 65.5 40 61.3C40.7 57.1 37.8 56.3 37.8 56.3C43.7 56.3 43.6 60.3 43 66.7C42.8 69.4 40.2 70.5 39.6 69.2C37.2 64.1 34 64.6 34 64.6Z" fill="#00D2C6"/>
<path d="M33.7 55.5C34.7 55.5 35.9 56 36.9 56.4C37.6 56.7 38.4 57.1 38.9 57.7C39.2 58.1 39.4 58.6 39.5 59C39.7 60.2 39.5 61.6 39.2 62.8C39.1 63.3 38.9 63.8 38.7 64.2C38.7 64.3 38.7 64.4 38.5 64.5H38.3C38.1 64.5 37.9 64.6 37.7 64.7C35.9 64.9 34.2 63.8 32.6 63C32 62.7 31.5 63.6 32.1 63.9C33.7 64.7 35.4 65.8 37.3 65.8C38 65.8 38.9 65.7 39.4 65.2C39.7 64.8 39.9 64.3 40.1 63.9C40.6 62.5 40.8 61 40.7 59.5C40.7 58.8 40.5 58.2 40.2 57.6C39.8 56.9 39.1 56.4 38.4 56.1C37 55.3 35.4 54.8 33.8 54.7C33.2 54.7 33.2 55.6 33.8 55.7L33.7 55.5Z" fill="#17171E"/>
<path d="M58.6 102.4C52.3 103.7 45.9 104.5 39.5 104.7C34.3 104.9 29 104.7 24 103.4C18.7 102 14.4 99 11.3 94.4C8.2 89.8 6.49999 84 5.09999 78.5C-0.40001 56.2 0.500039 32.1 10.9 11.3C11.6 9.89999 12.3 8.50001 13.1 7.20001C13.9 5.90001 14.6 4.39999 15.7 3.29999C18.6 0.399988 22.1 3.59999 23.6 6.29999C26.8 12.4 28.4 19.5 28.8 26.3C28.8 27.1 30.2 27.1 30.1 26.3C29.8 19.8 28.3 13.4 25.6 7.5C24.5 5 23.1 2.39999 20.4 1.29999C18.1 0.299988 15.7 0.899988 14.1 2.79999C12.3 4.99999 11 7.70001 9.70003 10.2C8.30003 12.9 7.09999 15.7 6.09999 18.5C3.89999 24.3 2.40004 30.3 1.40004 36.4C-0.499961 48.6 0.0999899 61.2 2.59999 73.3C4.79999 84.2 8.00001 97.7 19 102.9C24.5 105.5 30.8 106 36.8 105.9C44.2 105.9 51.6 105 58.8 103.3C59.3 103.2 59.1 102.4 58.6 102.5V102.4Z" fill="#17171E"/>
</svg>
