<svg width="100%" height="100%" viewBox="0 0 138 107" fill="none" xmlns="http://www.w3.org/2000/svg">
<path d="M113.2 82C113.2 82 113.2 82 113.3 82C113.3 82 113.5 82 113.6 82C113.9 82 114.2 81.8 114.4 81.7C115.3 81.4 116.2 80.9 117 80.4C120.1 78.5 122.4 75.6 124.7 72.8C124.7 72.7 124.9 72.6 125 72.5L125.2 72.4C125.2 72.4 124.9 72.4 124.8 72.2C124.8 72.8 124.7 73.4 124.5 74.1C124 76.2 123.4 78.3 122.7 80.3C122.3 81.7 121.8 83.1 121.3 84.5C121.1 85.1 122.1 85.4 122.3 84.8C123.5 81.4 124.7 78 125.5 74.5C125.7 73.8 125.9 73 125.8 72.3C125.8 71.7 125.4 71.2 124.7 71.5C124.4 71.6 124.2 71.9 124.1 72.1C123.4 73 122.7 73.9 121.9 74.8C120.7 76.2 119.3 77.6 117.8 78.7C116.8 79.5 115.7 80.1 114.5 80.6C113.9 80.8 113.3 81 112.8 81.2C112.2 81.5 112.8 82.3 113.3 82.1L113.2 82Z" fill="#17171E"/>
<path d="M113.2 87.5C116.9 87.7 120.8 87.2 124.4 86.1C125.8 85.7 127.2 85.1 128.5 84.4C129.1 84.1 129.7 83.7 130.3 83.3C130.3 83.3 130.9 82.9 131 82.8C131 82.8 130.5 82.5 130.6 82.5C130.6 82.5 130.6 82.9 130.6 83C130.5 83.3 130.3 83.7 130.2 84C129.8 84.9 129.2 85.7 128.6 86.5C126.7 89 124.2 91.1 121.3 92.2C120.7 92.4 121 93.4 121.6 93.2C124.4 92.2 126.9 90.3 128.8 88C130 86.6 131.4 84.8 131.7 83C131.7 82.5 131.7 81.9 131.1 81.9C130.5 81.9 130.5 82.2 130.2 82.4C129.5 82.9 128.7 83.4 128 83.8C125.1 85.3 121.9 86 118.7 86.4C117 86.6 115.2 86.7 113.5 86.6C112.9 86.6 112.9 87.6 113.5 87.6L113.2 87.5Z" fill="#17171E"/>
<path d="M35 70.8L18.2 96.8C18.2 96.8 31.9 97.1 62.4 96.8C89.8 96.6 110.1 95.1 110.1 95.1L109.6 86.8L111.3 80.6C111.3 80.6 80 77 77.1 76.6C76.3 76.5 73.2001 76.1 68.3 75.4L66.9 77.9L58.9 76.9L44.8 75.1L46.5 72.4C36.9 71 35 70.7 35 70.7V70.8Z" fill="#17171E"/>
<path d="M47.6 65.3C49 64.6 50.6 64.1 52.2 63.8C54.3 63.4 56.2 63.2 58.1 64.5C59.4 65.4 60.6001 66.7 61.3001 68.1C61.6001 68.6 61.7001 68.8 61.3001 69.2C60.7001 69.8 60 70.2 59.2 70.5C57.4 71.2 55.5 71.4 53.6 71.7C53 71.8 53.2 72.8 53.9 72.7C55.8 72.4 57.8 72.2 59.7 71.4C60.9 70.9 63 69.9 62.5 68.4C62 66.9 60.7 65.4 59.5 64.3C58.7 63.6 57.9 63.1 56.9 62.7C55.8 62.3 54.7 62.4 53.6 62.5C51.4 62.8 49.1 63.4 47.1 64.4C46.5 64.7 47.1 65.6 47.6 65.3Z" fill="#17171E"/>
<path d="M55.6 69.2C55.5 69.2 55.7 69.2 55.6 69.2C55.8 69.2 55.9 69.2 56.1 69.2C56.6 69.2 57.2 69.2 57.7 69.2C59 69.2 60.3001 69.4 61.4001 70.1C61.9001 70.5 62.4001 69.6 61.9001 69.2C60.7001 68.4 59.2 68.2 57.7 68.1C56.9 68.1 56 68.1 55.2 68.3C54.9 68.3 54.8001 68.7 54.9001 68.9C54.9001 69.2 55.2 69.3 55.5 69.2H55.6Z" fill="#17171E"/>
<path d="M54.5 65.5C55.4 65.5 56.3 65.7 57.2 65.9C58.5 66.2 60.3 66.7 61.1 67.9C61.5 68.4 62.3 67.9 62 67.4C61.2 66.3 60 65.7 58.7 65.3C57.6 64.9 56.4 64.7 55.2 64.6C55 64.6 54.7001 64.6 54.4001 64.6C53.8001 64.6 53.8001 65.6 54.4001 65.6L54.5 65.5Z" fill="#17171E"/>
<path d="M13.8 30.1C2.10005 33.1 -1.90003 48.2 3.09997 71.3C6.49997 87.1 15 96.1 17.9 96.8L29 81L47.8 82.8L45.8 64.2C45.8 64.2 39.1 66.1 37.8 64.2C33.3 57.8 25.8 40.6 21.5 35.4C19.5 32.9 13.8 30.1 13.8 30.1Z" fill="#FDD900"/>
<path d="M79.0999 51.7C75.7999 58.2 72.3999 64.7 69.0999 71.1C68.5999 72 68.1999 72.9 67.6999 73.8C67.3999 74.4 68.2999 74.9 68.5999 74.3C71.8999 67.8 75.2999 61.3 78.5999 54.9C79.0999 54 79.5 53.1 80 52.2C80.3 51.6 79.3999 51.1 79.0999 51.7Z" fill="#17171E"/>
<path d="M88.9 99.9V106.1C88.9 106.4 89.1 106.6 89.3 106.6C94.6 106.6 100 106.6 105.3 106.4C113.8 106.4 122.2 106.2 130.7 106.2C132.6 106.2 134.6 106.2 136.6 106.2C136.9 106.2 137.1 106 137.1 105.7C137.1 101.5 137.1 97.4 137.1 93.2C137.1 92.9 136.9 92.7 136.6 92.7C133.2 92.7 129.8 92.5 126.3 92.4C125.7 92.4 125.7 93.4 126.3 93.4C129.7 93.4 133.1 93.6 136.6 93.7L136.1 93.2C136.1 97.4 136.1 101.5 136.1 105.7L136.6 105.2C131.3 105.2 125.9 105.2 120.6 105.4C112.1 105.4 103.7 105.6 95.2 105.6C93.3 105.6 91.3 105.6 89.3 105.6L89.8 106.1V99.9C89.8 99.3 88.9 99.3 88.9 99.9Z" fill="#17171E"/>
<path d="M33.1 28.5999C30.9 32.5999 26.3001 34.6 21.8001 33.7C17.3001 32.8 13.6 29.5 12.6 25C11.6 20.7 13.6 16.1 17.5 14C21.5 11.8 26.7 12.5 30.2 15.4C34 18.6 35.5 24.0999 33.2 28.5999C32.9 29.1999 33.8 29.6999 34.1 29.0999C36.3 24.7999 35.5001 19.6 32.3001 16C29.1001 12.4 23.4 10.7 18.6 12.5C14.1 14.2 11 18.7 11.4 23.5C11.8 28.3 15.3 32.7 20 34.3C25.3 36.1 31.4 34.0999 34.1 29.0999C34.4 28.4999 33.5 27.9999 33.2 28.5999H33.1Z" fill="#17171E"/>
<path d="M28.4 13.7C27.5 13.2 26.5 12.9 25.6 12.6C27.8 8.4 26.3 3.3 22.2 1.1C18.1 -1.1 13.0001 0.499997 10.8001 4.6C8.60007 8.7 10.1 13.9 14.1 16.1C13.7 16.6 13.3 17.2 12.9 17.8C11.9 19.7 11.5 21.7 11.7 23.7C11.7 23.7 13.9 25.4 22 25.3C30 25.2 34.5 22 34.5 22C33.9 18.7 31.7 15.5 28.4 13.8V13.7Z" fill="#17171E"/>
<path d="M24.1 78.9C21.6 77.8 19.3 76.7 17.3 74.9C15.3 73.1 13.8 70.9 12.6 68.5C11.2 65.7 10.3 62.7 9.69995 59.7C9.09995 56.7 8.80005 53.4 8.30005 50.3C8.30005 49.7 7.30005 49.9 7.30005 50.4C7.50005 53.7 8.10005 57.1 8.80005 60.4C9.50005 63.7 10.4 66.5 11.9 69.3C14.3 73.8 18.6 78.8 23.9 79.5C24.3 79.5 24.6 79 24.2 78.8L24.1 78.9Z" fill="#17171E"/>
</svg>
