<svg width="100%" height="100%" viewBox="0 0 67 191" fill="none" xmlns="http://www.w3.org/2000/svg">
<path d="M36.8 17.8C36.8 17.8 43.6 23.1 46.4 25C46.4 25 49.1 12.2 35 11.3C25.7 10.7 20.8 20.7 24.7 28C24.7 28 29.9 27.8 36.7 17.9L36.8 17.8Z" fill="#17171E"/>
<path d="M33.8 16.3C38.1078 16.3 41.6 12.7183 41.6 8.29999C41.6 3.88171 38.1078 0.299988 33.8 0.299988C29.4922 0.299988 26 3.88171 26 8.29999C26 12.7183 29.4922 16.3 33.8 16.3Z" fill="#17171E"/>
<path d="M52.2 40.2C47.7 34.7 39.2 32.7001 35.3 32.9001C28 33.4001 20 35 14.3 43.3C10.8 48.4 4.89999 60.9 1.59999 70.1C0.899985 72.1 -0.100009 74.2001 1.19999 75.9001C2.59999 77.7001 4.39999 78 5.19999 77.8C8.89999 77.1 14.6 74.9001 14.6 74.9001L15.2 96.7H51.2L53.9 74C53.9 74 58.7 75.2 61.3 75.7C62.3 75.9 64.4 74.9 65.4 73.5C66.6 71.8 66.1 70.3001 65.8 69.4001C64.6 65.1001 56.1 44.8 52.2 40.2ZM49.3 63.9001H19.2V46H49.3V63.9001Z" fill="#9DCDF4"/>
<path d="M46.2 22.2C46.2 26.7 43.1 30.6 38.8 32C34.5 33.4 29.5 32.2 26.5 28.8C23.5 25.4 23.2 20.7 25.5 17C27.9 13.1 32.8 11.2 37.3 12C42.3 12.9 46.2 17.1 46.3 22.2C46.3 22.8 47.3 22.8 47.3 22.2C47.3 17.3 43.9 13.1 39.3 11.5C34.7 9.90001 28.9 11.3 25.7 15.1C22.6 18.8 22.2 24.1 24.9 28.2C27.7 32.3 32.8 34.3 37.6 33.4C43 32.4 47.2 27.8 47.3 22.2C47.3 21.6 46.3 21.6 46.3 22.2H46.2Z" fill="#17171E"/>
<path d="M15 89.5L17.2 175.4L24.7 175.3L32.7 109.7L35.6 175.3L42.3 175.4L52 89.9L15 89.5Z" fill="#17171E"/>
<path d="M19.2 46.5H49.3L48.8 46V63.9C48.8 64.5 49.8 64.5 49.8 63.9V46C49.8 45.7 49.6 45.5 49.3 45.5H19.2C18.6 45.5 18.6 46.5 19.2 46.5Z" fill="#17171E"/>
<path d="M22 70.8L29.8 67.5C29.8 67.5 19.2 57.6 18.2 55.7L14.6 62.3L22.0999 70.8H22Z" fill="#FDD900"/>
<path d="M56.3 60.8L51.8 53.6C51.8 53.6 43.8 65.7 42 67L49.1 69.5L56.3 60.7V60.8Z" fill="#FDD900"/>
<path d="M18.5 56.2C18.5 56.2 18.3 52.7 19.3 52.5C20.3 52.3 21 54.4 21 54.4C21 54.4 25 52.5 27.8 54.2C30.6 55.9 27.0999 65 27.0999 65" fill="white"/>
<path d="M19 56.2C19 55.3 19 54.3 19.2 53.5C19.4 52.9 19.6 53 20 53.5C20.3 53.8 20.5 54.3 20.6 54.7C20.7 55 21 55.1 21.3 55C22.3 54.5 23.4 54.2 24.5 54.2C25.8 54.2 27.7 54.2 28.2 55.7C28.6 56.8 28.4 58.1 28.2 59.2C28 60.5 27.7 61.8 27.3 63C27.1 63.7 26.9 64.4 26.6 65C26.4 65.6 27.3 65.9 27.6 65.3C28.4 63.3 28.9 61.2 29.2 59.1C29.4 57.8 29.5 56.4 29 55.1C28.4 53.6 26.6 53.1 25.2 53.1C23.8 53.1 22.1 53.4 20.8 54.1L21.5 54.4C21.2 53.4 19.8 51.1 18.6 52.5C18.1 53 18 54 18 54.7C18 55.2 18 55.8 18 56.4C18 57 19 57 19 56.4V56.2Z" fill="#17171E"/>
<path d="M23.0999 57.6C23.4999 57.1 23.9999 56.7 24.4999 56.3C25.3999 55.6 26.5999 54.9 27.7999 54.8C28.0999 54.8 28.2999 54.6 28.2999 54.3C28.2999 54 28.0999 53.8 27.7999 53.8C26.3999 54 25.0999 54.6 23.9999 55.5C23.3999 55.9 22.9 56.4 22.4 56.9C22 57.4 22.6999 58.1 23.0999 57.6Z" fill="#17171E"/>
<path d="M26.4999 61C26.6999 60.5 26.7999 60 26.9999 59.5C26.9999 59.5 26.9999 59.3 27.0999 59.2C27.0999 59.2 27.0999 59.1 27.0999 59C27.0999 58.8 27.3 58.6 27.4 58.4C27.4 58.2 27.5999 58 27.6999 57.8C27.6999 57.8 27.7 57.5999 27.9 57.5999C27.9 57.5999 27.9 57.6 27.9 57.5C28.5 57.8 29 56.9999 28.4 56.5999C27.5 56.0999 26.8 57 26.4 57.7C25.9 58.5 25.5999 59.4 25.2999 60.3C25.2999 60.5 25.1999 60.7 25.0999 60.9C24.8999 61.5 25.8999 61.8 26.0999 61.2L26.4999 61Z" fill="#17171E"/>
<path d="M51 55.2C51 55.2 50.8 51.7 49.7 51.7C48.6 51.7 48.2 53.8 48.2 53.8C48.2 53.8 44 52.4 41.5 54.5C39 56.6 43.6 65.2 43.6 65.2" fill="white"/>
<path d="M51.5 55.2C51.5 54.1 51.3 52.2 50.4 51.4C49 50.2 48 52.5999 47.8 53.5999L48.4 53.3C47.3 52.9 46 52.8 44.9 52.8C43.4 52.8 41.4 53.4 40.6 54.8C40 56 40.3 57.3999 40.6 58.5999C40.9 60.0999 41.5 61.5 42.1 62.8C42.5 63.6 42.9 64.5 43.3 65.3C43.6 65.9 44.5 65.3 44.2 64.8C43.3 63.1 42.5 61.3999 42 59.5999C41.6 58.3999 41.3 57.1 41.5 55.9C41.7 54.4 43.3 53.9 44.6 53.8C45.8 53.7 47.1 53.8 48.3 54.2C48.5 54.2 48.9 54.2 48.9 53.9C48.9 53.5 49.1 53.1 49.3 52.8C49.6 52.3 49.7999 51.9 50.0999 52.5C50.4999 53.3 50.5999 54.3 50.5999 55.2C50.5999 55.8 51.5999 55.8 51.5999 55.2H51.5Z" fill="#17171E"/>
<path d="M47.2999 56.4C45.7999 55 43.5999 54 41.5999 54C39.5999 54 40.9999 55 41.5999 55C42.7999 55 44.0999 55.5 45.0999 56.1C45.4999 56.3 45.9 56.6 46.2 56.9C46.2 56.9 46.1999 56.9 46.2999 57C46.2999 57 46.3 57 46.4 57C46.9 57.4 47.5999 56.7 47.0999 56.3L47.2999 56.4Z" fill="#17171E"/>
<path d="M44.4999 60.6C44.2999 60.1 43.9999 59.6 43.6999 59.1C43.1999 58.3 42.6999 57.4 41.9999 56.9C41.5999 56.6 41.0999 56.6 40.6999 56.9C40.4999 57.1 40.3999 57.3 40.4999 57.6C40.5999 57.8 40.9999 57.9 41.1999 57.8C41.1999 57.8 41.2999 57.8 41.3999 57.9C41.3999 57.9 41.4999 58 41.5999 58.1C41.6999 58.2 41.6999 58.2 41.7999 58.3C42.2999 59 42.6999 59.7 42.9999 60.4C42.9999 60.6 43.1999 60.7 43.1999 60.9C43.2999 61.1 43.6999 61.2 43.8999 61.1C44.0999 60.9 44.1999 60.7 44.0999 60.4L44.4999 60.6Z" fill="#17171E"/>
<path d="M16.9 176.5C16.9 176.5 16.9 176.5 16.9 176.7C16.9 176.9 16.9 177 16.9 177.2C16.9 177.6 16.7 178.1 16.7 178.5C16.4 179.8 16.1 181 15.7 182.3C15.3 183.6 14.8 184.9 14.2 186.2C13.7 187.2 13.1999 188.1 12.2999 188.9C11.8999 189.2 11.6999 189.8 12.2999 190.1C12.7999 190.2 13.2999 190.1 13.7999 190C15.6999 189.6 17.6 188.7 19.2 187.5C21.7 185.7 23.4999 183.1 24.0999 180.1C24.1999 179.5 23.2999 179.2 23.0999 179.8C22.1999 184.3 18.4 187.6 14.1 188.8C13.6 189 13.1 189 12.6 189.1C12.6 189.1 12.7999 189.2 12.7999 189.4V189.7C12.7999 189.7 12.9 189.6 13 189.5C13.2 189.3 13.3 189.2 13.5 189C15 187.2 15.8999 184.7 16.5999 182.4C16.9999 181.2 17.2999 179.9 17.5999 178.6C17.6999 177.9 17.9999 177 17.7999 176.3C17.6999 175.7 16.6999 175.9 16.7999 176.6L16.9 176.5Z" fill="#17171E"/>
<path d="M24 176.8C24.5 180.2 25 183.7 25.4 187.1L25.6 188.6C25.6 189.2 26.6 189 26.6 188.3C26.1 184.9 25.6 181.4 25.2 178L25 176.5C25 175.9 24 176.1 24 176.8Z" fill="#17171E"/>
<path d="M42.4 176.5C42.3 177.1 42.4 177.8 42.4 178.4C42.6 179.5 42.8 180.5 43.1 181.6C43.7 183.9 44.4 186.4 45.7 188.4C45.9 188.8 46.2 189.2 46.6 189.5C46.7 189.6 46.9 189.8 47.1 189.9V189.7C47.1 189.6 47.3 189.3 47.3 189.4C47.3 189.4 47 189.4 47.2 189.4C47 189.4 46.7 189.4 46.5 189.4C44.9 189.3 43.3 188.6 42 187.7C39.5 186.1 38 183.6 37.3 180.8C37.2 180.2 36.2 180.4 36.3 181.1C37.3 185.7 41 189.6 45.7 190.4C46.2 190.4 46.8 190.6 47.4 190.4C48 190.2 48.2 189.7 47.8 189.3C47.6 189 47.3 188.9 47 188.6C46.7 188.2 46.4 187.7 46.1 187.2C45.5 186 45 184.7 44.6 183.5C44.2 182.1 43.8 180.7 43.5 179.3C43.5 178.8 43.3 178.2 43.2 177.7C43.2 177.5 43.2 177.3 43.2 177.2V177C43.3 176.4 42.4 176.1 42.2 176.7L42.4 176.5Z" fill="#17171E"/>
<path d="M35.2999 176.8C34.7999 180.2 34.3 183.7 33.9 187.1C33.9 187.6 33.8 188.1 33.7 188.6C33.7 189.2 34.6 189.5 34.7 188.9C35.2 185.5 35.6999 182 36.0999 178.6C36.0999 178.1 36.1999 177.6 36.2999 177.1C36.2999 176.5 35.3999 176.2 35.2999 176.8Z" fill="#17171E"/>
</svg>
