<svg width="100%" height="100%" viewBox="0 0 104 140" fill="none" xmlns="http://www.w3.org/2000/svg">
<path d="M16.8 80.9001C16.8 80.9001 15.5 94.5 26.3 96.2C39.1 98.2 55.3 96.2 56.3 96.6C57.3 97 61.5 125.5 61.5 125.5L70.6 125.9L70.1 101.6L81.6 117.4L88.9 113C88.9 113 72.2 74.1001 69.7 72.9001C65.5 70.9001 18.6 74.2 18.6 74.2L16.7 80.9001H16.8Z" fill="#17171E"/>
<path d="M59.7 53C61.5 50.1 63.2 47.2 65 44.2C65.7 43 66.2 41.7 67.7 41.4C68.6 41.2 69.7 41.4 70.6 41.4C72.2 41.6 73.8001 42 75.3001 42.3C77.0001 42.6 78.7001 42.9 80.3001 43.2C81.5001 43.4 82.8 43.7 83.7 44.4C85.2 45.5 84.4 47.7 83.7 49.1C82 52.3 80.2 55.4 78.5 58.6C76.8 61.8 75.1001 64.8 73.4001 67.9C73.1001 68.5 74.0001 69 74.3001 68.4C77.7001 62.1 81.4 55.8 84.7 49.4C85.5 47.9 86.2 45.9 85.2 44.4C83.9 42.4 80.5001 42.2 78.4001 41.8C75.3001 41.3 72.1001 40.2 68.9001 40.1C67.2001 40.1 65.9 40.8 65 42.2C62.9 45.5 61 48.9 59 52.3C58.7 52.9 59.5001 53.4 59.9001 52.8L59.7 53Z" fill="#17171E"/>
<path d="M71.5 60.0999C71.5 60.0999 74.8 57.3 77.1 57C79.4 56.8 77.3 59.5999 77.3 59.5999C77.3 59.5999 81.6 60.1 82.4 64.4C83.2 68.7 76 69.1999 72.7 69.6999" fill="white"/>
<path d="M71.9 60.4001C73.2 59.3001 74.6 58.3 76.2 57.7C76.5 57.6 77.2 57.3001 77.6 57.4001C77.8 57.4001 77.8 57.6001 77.7 57.9001C77.6 58.4001 77.3 58.8 77 59.2C76.8 59.5 77 59.9 77.4 60C77.6 60 77.7001 60 77.8001 60C78.2001 60.1 78.6 60.3 79 60.5C80.3 61.1 81.3 62.2 81.7 63.6C82.1 64.9 82 66.1001 80.9 66.9001C79.8 67.7001 78.4 68.1001 77.1 68.4001C75.6 68.7001 74.1 68.9 72.6 69.1C72 69.1 72.2 70.2 72.9 70.1C75.8 69.7 79.3 69.5 81.7 67.6C84.3 65.4 82.5 61.4001 80.1 59.9001C79.3 59.4001 78.3 59.0001 77.4 58.9001L77.8001 59.7C78.2001 59.1 78.6 58.5001 78.7 57.8001C78.9 56.6001 77.9 56.3001 76.9 56.4001C74.8 56.7001 72.8 58.2 71.2 59.6C70.7 60 71.4 60.7001 71.9 60.3001V60.4001Z" fill="#17171E"/>
<path d="M74.4001 8.40007C76.0001 6.40007 77.9 4.40004 80.1 3.00004C81.3 2.20004 83 1.40002 84.5 2.10002C86.3 2.90002 86.7 4.89999 86.7 6.69999C86.7 7.89999 86.5 9.09999 86.1 10.2C85.9 10.7 86.6001 11 86.9001 10.7C87.2001 10.4 87.5001 10.2 87.8001 10C88.0001 9.80004 89.4 9.09999 89.6 9.69999C89.7 10.1 88.7001 11.1001 88.4001 11.4001C87.3001 12.6001 86 13.8001 84.7 14.8001C84.2 15.2001 84.9001 15.9 85.4001 15.5C87.1001 14.2 89 12.7001 90.1 10.9001C90.7 10.0001 90.8 9.00002 89.6 8.60002C88.4 8.20002 87 9.20004 86.2 10L87 10.5C87.9 7.80004 88.3001 3.90007 85.9001 1.90007C82.7001 -0.799933 78.6001 2.70007 76.3001 4.90007C75.4001 5.80007 74.5 6.69999 73.7 7.69999C73.3 8.19999 74.0001 8.90007 74.4001 8.40007Z" fill="#17171E"/>
<path d="M79.6 7.40002C79.9 6.20002 80.6 5.09995 81.4 4.19995C81.8 3.79995 82.2 3.3 82.7 3C82.9 2.8 83.2 2.6 83.5 2.5C83.8 2.4 84.1 2.2 84.3 2C84.3 2 84.5 1.69998 84.3 1.59998C84.2 1.39998 84 1.40002 83.8 1.40002C83.5 1.40002 83.2 1.70002 82.9 1.90002C82.6 2.10002 82.3 2.3 82.1 2.5C81.6 2.9 81.1 3.40002 80.7 3.90002C79.9 4.90002 79.3 6.2 79 7.5C79 7.8 79.4 7.99995 79.5 7.69995L79.6 7.40002Z" fill="#17171E"/>
<path d="M83.5 8.49996C84.1 6.49996 85.1 4.59996 86.4 2.99996C86.7 2.59996 86.2 1.99998 85.8 2.39998C84.4 4.19998 83.5 6.20001 83 8.30001C83 8.60001 83.4 8.69998 83.5 8.39998V8.49996Z" fill="#17171E"/>
<path d="M77.6 67.1C78.3 67 78.9999 66.9 79.6999 67.1C79.9999 67.1 80.3999 67.1 80.6999 67.2C80.9999 67.3 81.3999 67.4 81.6999 67.4C81.8999 67.4 82.1 67.2 82.1 67.1C82.1 66.9 82.1 66.7 81.8 66.7C81.4 66.6 80.9999 66.6 80.6999 66.5C80.2999 66.5 80 66.5 79.6 66.5C78.9 66.5 78.2 66.5 77.4 66.7C77.1 66.7 77.2 67.2 77.5 67.2L77.6 67.1Z" fill="#17171E"/>
<path d="M77.6 63.8001C78.4 63.8001 79.2 64 80 64.2C80.4 64.3 80.8 64.4 81.1 64.6C81.3 64.6 81.5 64.8001 81.7 64.8001C81.9 64.8001 82.1 65 82.2 65.1C82.4 65.3 82.8 65.3 82.9 65.1C83 64.9 82.9 64.5001 82.6 64.4001C82.4 64.4001 82.2 64.2 82 64.1C81.8 64 81.6 63.9001 81.4 63.9001C81 63.8001 80.6 63.7 80.2 63.6C79.4 63.4 78.5 63.3001 77.6 63.4001C77.3 63.4001 77.3 63.9001 77.6 63.9001V63.8001Z" fill="#17171E"/>
<path d="M63.2 55.5001C64.9 53.9001 66.6001 52.4001 68.3001 50.8001H67.6C69 52.5001 70.4001 54.3 71.8001 56.1C72.0001 56.3 72.3001 56.3 72.5001 56.1C75.8001 52.9 79.1001 49.7001 82.4001 46.5001C82.8001 46.1001 82.2 45.4001 81.7 45.8001C78.4 49.0001 75.1001 52.2001 71.8001 55.4001H72.5001C71.1001 53.6001 69.8001 51.9 68.4001 50.1C68.2001 49.9 67.9001 49.9 67.8001 50.1C66.1001 51.7 64.6001 53.4001 62.9001 55.0001C62.7001 55.2001 63.0001 55.6001 63.3001 55.4001L63.2 55.5001Z" fill="#17171E"/>
<path d="M0.500049 97.3H57.9001C58.5001 97.3 58.5001 96.3 57.9001 96.3H0.500049C-0.0999512 96.3 -0.0999512 97.3 0.500049 97.3Z" fill="#17171E"/>
<path d="M46.2 32.3C42.6 32.9 37.8 36 34.1 40.4C29.8 45.5 19.8 65.2 18.7 74.2L71.6 71.6L67.4 58.6L56.6 59.4C56.6 59.4 57.3 50.9 59.8 44.3C59.8 44.3 68.4 37.1 72 34.1C75.6 31.1 84.3 17.1 84.3 17.1C84.3 17.1 73.8 8.90002 72.9 8.90002C72 8.90002 68.2 19.6 65.2 22.9C63.6 24.6 57.6 28.4 56 29.6C53.8 31.3 50.5 31.5 46.1 32.3H46.2Z" fill="#ED3E54"/>
<path d="M41.1 47.5C41.3 49.6 41.4 51.7001 41.7 53.8001C41.9 55.3001 42.3 56.9 43.4 58.1C44.6 59.5 46.5 59.7 48.3 59.9C50.5 60.2 53 60.3 55.2 60C55.7 60 55.7 59.2 55.2 59.2C53.1 59.2 51.1 59.3 49.1 59.2C47.3 59 45.2 58.9 43.9 57.5C42.9 56.3 42.6 54.7 42.4 53.2C42.1 51.3 41.9 49.4 41.6 47.4C41.6 47.1 41.1 47.2 41.1 47.4V47.5Z" fill="#17171E"/>
<path d="M59.2 22.1999C59.2 26.3999 56.3001 30 52.3001 31.3C48.3001 32.6 43.7001 31.5 40.8001 28.3C37.9001 25.1 37.7 20.7 39.9 17.3C42.2 13.7 46.7001 11.8999 50.8001 12.6999C55.4001 13.4999 59 17.3999 59.1 22.1999C59.1 22.7999 60.1 22.7999 60.1 22.1999C60.1 17.5999 56.9 13.6999 52.6 12.1999C48.3 10.6999 42.9001 11.9999 39.8001 15.5999C36.9001 18.9999 36.5 24.1 39 27.8C41.6 31.7 46.4 33.5 50.9 32.6C56 31.7 59.9 27.2999 60 22.1999C60 21.5999 59 21.5999 59 22.1999H59.2Z" fill="#17171E"/>
<path d="M48.8 12C47.8 12 46.9 12.1 46 12.3C46 7.90005 42.5 4.30005 38.2 4.30005C33.9 4.30005 30.4 7.89995 30.4 12.2C30.4 16.5 33.9 20.1 38.2 20.1C38.1 20.7 38 21.4 38 22C38 24 38.6 25.8 39.6 27.4C39.6 27.4 42.2 27.8 48.7 24.2C55.2 20.6 57.5 16 57.5 16C55.5 13.5 52.4 11.9 48.8 11.9V12Z" fill="#17171E"/>
<path d="M83.0001 118.2C85.1001 120.8 87.1 123.3 89.2 125.9C89.5 126.3 89.8 126.6 90.1 127C90.5 127.5 91.2001 126.8 90.8001 126.3C88.7001 123.7 86.7 121.2 84.6 118.6C84.3 118.2 84 117.9 83.7 117.5C83.3 117 82.6001 117.7 83.0001 118.2Z" fill="#17171E"/>
<path d="M90.3 115.9C92.5 118.1 95.5 119.8 98.3 121.2C98.9 121.5 99.5999 121.8 100.2 122.1C100.5 122.3 100.9 122.4 101.3 122.5C101.6 122.6 102.2 123 102.5 123C102.6 123 102.5 123 102.5 122.8C102.5 122.6 102.5 122.5 102.5 122.5C102.5 122.5 102.1 122.7 102 122.7C100.3 123.3 98.3999 123.3 96.6999 123.3C93.8999 123.2 91.1 122.5 88.8 120.9C88.3 120.5 87.8 121.4 88.3 121.8C90.5 123.3 93.1 124 95.8 124.3C97.8 124.5 100 124.4 102 123.8C102.4 123.7 103.1 123.5 103.3 123.1C103.7 122.5 103 122.1 102.5 121.9C99.6 120.8 96.6999 119.4 94.0999 117.7C92.9999 117 91.9 116.2 90.9 115.2C90.5 114.7 89.6999 115.4 90.1999 115.9H90.3Z" fill="#17171E"/>
<path d="M61.8001 126.6C62.6001 129.8 63.4 133 64.1 136.2C64.2 136.6 64.3001 137.1 64.4001 137.5C64.6001 138.1 65.5001 137.9 65.4001 137.2C64.6001 134 63.8 130.8 63.1 127.6C63 127.2 62.9001 126.7 62.8001 126.3C62.6001 125.7 61.7001 125.9 61.8001 126.6Z" fill="#17171E"/>
<path d="M69.3 127.6C69.6 128.6 70.0999 129.5 70.5999 130.4C71.8999 132.7 73.4999 134.9 75.1999 136.9C75.7999 137.6 76.3999 138.3 77.0999 138.9C77.0999 138.9 77.3 139.2 77.5 139.3C77.5 139.2 77.5 139.1 77.5 139C77.5 138.9 77.7 139 77.5 139C77.6 139 77.5 139 77.3 139C77.1 139 76.8 139 76.5 139C74.8 138.7 73.1 138 71.5 137.1C69.2 135.8 67.0999 134.1 65.6999 131.8C65.3999 131.2 64.5 131.8 64.8 132.3C66.1 134.5 67.9999 136.2 70.1999 137.5C71.8999 138.5 73.9 139.4 75.9 139.8C76.4 139.9 77.0999 140.1 77.5999 139.9C78.0999 139.8 78.3999 139.3 78.0999 138.8C77.7999 138.2 77.0999 137.8 76.6999 137.3C76.0999 136.6 75.5 135.9 74.9 135.1C73.9 133.9 72.9999 132.6 72.1999 131.3C71.3999 130 70.5999 128.6 70.0999 127.3C69.8999 126.7 68.8999 127 69.0999 127.6H69.3Z" fill="#17171E"/>
</svg>
